<svg id="cartoon" height="60mm" viewBox="0 0 85 60" width="85mm" xmlns="http://www.w3.org/2000/svg">
  <style>
    /* landscape */
    #mountain, #forest, #glacier, #thermometer {stroke: #333; stroke-width: 0.5}
    #mountain, #forest, #glacier {stroke: #333; stroke-width: 0.5}
    #mountain {fill: #bcbd22}
    #forest {fill: #2ca02c}
    #glacier {fill: #ffffff}

    /* other */
    #mercury {fill: #d62728}
    #thermometer {fill: none}
    .noway circle {fill: #d62728}
    .noway path {fill: none; stroke: #fff}
    tspan {font-family: sans-serif; font-size: 4pt}

    /* animation */
    <!-- #cartoon:hover #mercury {transition: 8s ease-in-out; transition-delay: 2s;
        d: path("m81.25 11.25v1.75s1.25.5 1.25 2-1 2.5-2.5 2.5-2.5-1-2.5-2.5 1.25-2 1.25-2l-0-1.75z");
        fill: #1f77b4;} -->
  </style>

    <!-- thermometer -->
    <path id="mercury" d="
      m81.25 5v8s1.25.5 1.25 2-1 2.5-2.5 2.5-2.5-1-2.5-2.5 1.25-2 1.25-2l-0-8z">
    <animate attributeName="d" begin="2s" dur="8s" repeatCount="indefinite" values="
      m81.25 5v8s1.25.5 1.25 2-1 2.5-2.5 2.5-2.5-1-2.5-2.5 1.25-2 1.25-2l-0-8z;
      m81.25 11.25v1.75s1.25.5 1.25 2-1 2.5-2.5 2.5-2.5-1-2.5-2.5 1.25-2 1.25-2l-0-1.75z;
      m81.25 11.25v1.75s1.25.5 1.25 2-1 2.5-2.5 2.5-2.5-1-2.5-2.5 1.25-2 1.25-2l-0-1.75z;
      m81.25 5v8s1.25.5 1.25 2-1 2.5-2.5 2.5-2.5-1-2.5-2.5 1.25-2 1.25-2l-0-8z;
      m81.25 5v8s1.25.5 1.25 2-1 2.5-2.5 2.5-2.5-1-2.5-2.5 1.25-2 1.25-2l-0-8z;
    "/>
    <animate attributeName="fill" begin="2s" dur="8s" repeatCount="indefinite" values="
      #d62728;#1f77b4;#1f77b4;#d62728;#d62728
     "/>
    -->
    </path>
      <path id="thermometer" d="
          m80 3.75h1.25m-1.25 8.75h1.25m-1.25-7.5h1.25m-1.25 1.25h1.25m-1.25 1.25h1.25m-1.25 1.25h1.25m-1.25 1.25h1.25m-1.25 1.25h1.25m-1.25-8.75c.75 0 1.25.5 1.25 1.25v9.25s1.25.5 1.25 2-1 2.5-2.5 2.5-2.5-1-2.5-2.5 1.25-2 1.25-2l-0-9.25c-0-.759.5-1.25 1.25-1.2499999z
      "/>

    <!-- landscape -->
    <path id="mountain" d="m2.5 57.5 10.0000002-40c5-20 15-20 20 0 2.5 10 2.465398 14.965398 7.5 20 5 5 10 5 15 0 10-10 17.5-20 22.5-0l5 20" />
    <path id="forest" d="
        m2.5 57.5 5-20 32.5.0c5 5 10 5 15 0l22.5-0 5 20">
      <animate attributeName="d" begin="2s" dur="8s" repeatCount="indefinite" values="
        m2.5 57.5 5-20 32.5.0c5 5 10 5 15 0l22.5-0 5 20;
        m2.5 57.5 2.5-10 42.5.0c0 0 0 0 0 0l32.5-0 2.5 10;
        m2.5 57.5 2.5-10 42.5.0c0 0 0 0 0 0l32.5-0 2.5 10;
        m2.5 57.5 5-20 32.5.0c5 5 10 5 15 0l22.5-0 5 20;
        m2.5 57.5 5-20 32.5.0c5 5 10 5 15 0l22.5-0 5 20;
        "/>
    </path>
    <path id="glacier" d="
        m 12.5,17.5 c 5,-20 15,-20 20,0 l    0,0 c -10,0  -2.5,10  -7.5,10    -5,0  -2.5,-10  -12.5,-10 z">
      <animate attributeName="d" begin="3s" dur="8s" repeatCount="indefinite" values="
        m 12.5,17.5 c 5,-20 15,-20 20,0 l    0,0 c -10,0  -2.5,10  -7.5,10    -5,0  -2.5,-10  -12.5,-10 z;
        m 12.5,17.5 c 5,-20 15,-20 20,0 l 1.25,5 c -15,0 11.25,30 -1.25,30 -12.5,0 -6.25,-30 -21.25,-30 z;
        m 12.5,17.5 c 5,-20 15,-20 20,0 l 1.25,5 c -15,0 11.25,30 -1.25,30 -12.5,0 -6.25,-30 -21.25,-30 z;
        m 12.5,17.5 c 5,-20 15,-20 20,0 l    0,0 c -10,0  -2.5,10  -7.5,10    -5,0  -2.5,-10  -12.5,-10 z;
        m 12.5,17.5 c 5,-20 15,-20 20,0 l    0,0 c -10,0  -2.5,10  -7.5,10    -5,0  -2.5,-10  -12.5,-10 z;
        "
        calcMode="spline"
        keyTimes="0; 0.25; 0.5; 0.75; 1"
        keySplines="0.5 0 0.5 1; 0.5 0 0.5 1; 0.5 0 0.5 1; 0.5 0 0.5 1"/>
    </path>

    <!-- no-way signs -->
    <g class="noway" transform="translate(-0 5)" opacity="1">
      <circle cx="47.5" cy="32.5" r="2.5"/>
      <path d="m45.750001 32.5h3.5"/>
      <animate attributeName="opacity" begin="2s" dur="8s" repeatCount="indefinite" values="1;0;0;1;1" />
    </g>
    <g class="noway" transform="translate(-20 5)" opacity="0">
      <circle cx="47.5" cy="32.5" r="2.5"/>
      <path d="m45.750001 32.5h3.5"/>
      <animate attributeName="opacity" begin="3s" dur="8s" repeatCount="indefinite" values="0;1;1;0;0" />
    </g>

    <!-- text annotations -->
    <text x="10" y="35"><tspan x="10" y="35">alp</tspan></text>
    <text x="5" y="55"><tspan x="5" y="55">forest</tspan></text>
    <text x="15" y="15"><tspan x="15" y="15">glacier</tspan></text>

</svg>
